# xmcd
#
# Track frame offsets:
#	150
#	2583
#	19422
#	35415
#	54513
#	64096
#	81646
#
# Disc length: 1335 seconds
#
# Revision: 0
# Processed by: cddbd v1.5.2PL0 Copyright (c) Steve Scherf et al.
# Submitted via: EZCDAudioConverter 1.3.4.1
#
DISCID=56053507
DTITLE=Esterlyn - Love
DYEAR=2014
DGENRE=Christian
TTITLE0=Alms 
TTITLE1=Break My Heart 
TTITLE2=Love
TTITLE3=You Awaken 
TTITLE4=Heaven's Gate
TTITLE5=Holy Fire
TTITLE6=Choir Of Angels
EXTD=
EXTT0=
EXTT1=
EXTT2=
EXTT3=
EXTT4=
EXTT5=
EXTT6=
PLAYORDER=
